<?xml version="1.0" encoding="UTF-8"?>
<!DOCTYPE svg PUBLIC "-//W3C//DTD SVG 1.1//EN" "http://www.w3.org/Graphics/SVG/1.1/DTD/svg11.dtd">
<!-- Creator: CorelDRAW X7 -->
<svg xmlns="http://www.w3.org/2000/svg" xml:space="preserve" width="105mm" height="65mm" version="1.1" style="shape-rendering:geometricPrecision; text-rendering:geometricPrecision; image-rendering:optimizeQuality; fill-rule:evenodd; clip-rule:evenodd"
viewBox="0 0 10500 6500"
 xmlns:xlink="http://www.w3.org/1999/xlink">
 <defs>
  <style type="text/css">
   <![CDATA[
    .fil4 {fill:#04080B}
    .fil1 {fill:#0D9BBB}
    .fil3 {fill:#11828E}
    .fil2 {fill:#252944}
    .fil0 {fill:#363B60}
    .fil5 {fill:#41B2CA}
    .fil6 {fill:#56BAD0}
   ]]>
  </style>
 </defs>
 <g id="Layer_x0020_1">
  <metadata id="CorelCorpID_0Corel-Layer"/>
  <g id="_2787643281264">
   <path class="fil0" d="M4678 3322c-43,10 -130,16 -136,-43 -3,-27 -6,-158 12,-168 4,-2 74,-8 85,-8 47,-2 37,10 34,51 -2,27 5,166 5,168zm-572 544c-28,-7 -288,-273 -333,-323 -100,-111 -81,-78 -82,-243 -1,-106 4,-211 4,-318 0,-214 -1,-425 -7,-639 -2,-102 -22,-540 66,-578 59,-26 190,-59 255,-72 130,-25 87,138 88,237l0 1294c1,179 -17,476 9,642zm1049 -762l-80 -5c4,-29 55,-30 56,-92 1,-72 -35,-70 -45,-107 61,-3 118,-7 157,44 52,66 -8,104 -24,143 91,-29 69,-177 -35,-198 -106,-22 -218,12 -322,-22 -80,-27 -169,-69 -200,-152 -53,-143 -15,-177 7,-303 14,-3 62,-138 320,-158 74,-5 389,-29 438,2l-5 203c-14,12 -323,0 -371,1 -68,2 -107,3 -166,27 -51,19 -52,112 -29,143 101,133 389,-69 576,196 52,74 55,230 11,318 -47,95 -109,144 -208,176 -35,11 -323,3 -384,3 -38,0 -148,14 -166,-24 -10,-21 -7,-159 1,-181 78,-72 424,15 469,-14zm-486 -692c-25,9 -45,118 -47,148 -4,76 13,111 32,162 46,119 214,152 217,169 -19,36 -393,-36 -390,-318 1,-72 56,-203 111,-250 51,-42 218,-97 279,-71 -34,28 -199,65 -202,160zm562 -1058l-1491 404 -14 1c-54,99 -29,56 -47,170 -22,143 -8,482 -8,636 0,281 -12,587 1,865l24 62 858 847 -17 -38 1860 -1074c2,61 -101,394 -121,482 -45,186 -288,190 -323,275l321 -207 0 0c65,-267 138,-534 203,-801 68,-284 183,-535 173,-833 -6,-251 -247,-624 -454,-748 -144,-87 -290,-132 -460,-132 -306,-1 -439,84 -505,91z"/>
   <path class="fil1" d="M5231 1354c66,-7 199,-92 505,-91 170,0 316,45 460,132 207,124 448,497 454,748 58,1 196,362 214,429 54,193 105,345 35,551 -53,155 -114,290 -235,412 -67,65 -325,257 -390,257l0 -15 0 0c-1,13 -18,75 -21,82 -21,47 -7,44 -18,81 -30,93 -68,189 -117,276 -29,50 -54,79 -79,121 -49,82 -116,154 -199,203 -53,32 -65,48 -132,69 -37,12 -97,54 -119,66 -55,5 -61,21 -95,22 -39,2 -76,-1 -115,4 -88,10 -138,-11 -214,-5 -42,2 -137,-28 -173,-47 -24,-13 -163,-63 -166,-67 -24,84 -413,30 -500,7 -235,-63 -534,-335 -594,-575 -19,-75 -83,-506 -36,-522l-24 -62c-39,-11 -289,-288 -321,-342 -112,-182 -140,-281 -137,-515 3,-225 55,-319 166,-493 53,-84 89,-115 155,-176 17,-16 188,-144 191,-145l14 -1c-52,-45 156,-323 208,-372 233,-222 576,-338 888,-235 66,22 395,153 395,203zm-220 -586c-72,14 -137,4 -214,35 -219,87 -299,151 -497,263 -208,118 -418,234 -643,367 -670,398 -547,779 -547,1478 0,728 -91,1049 594,1427 216,120 419,234 642,368 244,146 431,276 747,268 334,-8 1050,-478 1354,-666 713,-439 494,-755 541,-1477 15,-233 18,-729 -76,-933 -119,-258 -297,-363 -523,-487 -210,-116 -437,-244 -642,-369 -172,-105 -502,-319 -736,-274z"/>
   <path class="fil2" d="M4554 4339c26,41 263,245 313,244 50,0 322,-152 378,-188 83,-53 674,-406 708,-411 72,-83 288,-85 333,-255 21,-87 113,-441 111,-502l-1860 1074 17 38z"/>
   <path class="fil2" d="M4109 3888c-27,-166 1,-485 1,-664l-1 -1294c0,-99 44,-262 -90,-237 -67,13 -219,40 -279,65 -122,37 -73,1376 -72,1539 1,166 -17,141 86,252 46,50 326,332 355,339z"/>
   <path class="fil1" d="M4669 2412c-22,126 -60,160 -7,303 31,83 120,125 200,152 104,34 216,0 322,22 104,21 126,169 35,198l-64 17c-45,29 -391,-58 -469,14 -8,22 -11,160 -1,181 18,38 128,24 166,24 61,0 349,8 384,-3 99,-32 161,-81 208,-176 44,-88 41,-244 -11,-318 -187,-265 -475,-63 -576,-196 -23,-31 -22,-124 29,-143 59,-24 98,-25 166,-27 48,-1 357,11 371,-1l5 -203c-49,-31 -364,-7 -438,-2 -258,20 -306,155 -320,158z"/>
   <path class="fil3" d="M3672 3430c-13,-278 -1,-584 -1,-865 0,-154 -14,-493 8,-636 18,-114 -7,-71 47,-170 -3,1 -174,129 -191,145 -66,61 -102,92 -155,176 -111,174 -163,268 -166,493 -3,234 25,333 137,515 32,54 282,331 321,342z"/>
   <path class="fil3" d="M5953 3984c-34,5 -625,358 -708,411 -56,36 -328,188 -378,188 -50,1 -287,-203 -313,-244l272 243c3,4 142,54 166,67 36,19 131,49 173,47 76,-6 126,15 214,5 39,-5 76,-2 115,-4 34,-1 40,-17 95,-22 22,-12 82,-54 119,-66 67,-21 79,-37 132,-69 83,-49 150,-121 199,-203 25,-42 50,-71 79,-121 49,-87 87,-183 117,-276 11,-37 -3,-34 18,-81 3,-7 20,-69 21,-82l-321 207z"/>
   <path class="fil4" d="M4669 2412c54,-83 192,-116 226,-144 -80,-60 -252,13 -303,55 -55,47 -110,178 -111,250 -3,282 371,354 390,318 17,-17 -124,-53 -206,-169 -19,-51 -32,-83 -28,-159 2,-30 25,-117 32,-151z"/>
   <path class="fil1" d="M8550 5540c-45,174 -270,109 -246,-39 28,-169 282,-104 246,39zm-129 -216c-262,7 -242,408 11,398 258,-10 248,-406 -11,-398z"/>
   <path class="fil1" d="M3034 5714l70 6 -10 -8 59 -163 19 6c44,21 101,225 179,161 10,-13 -89,-162 -106,-188 -49,-73 93,-131 94,-187 -139,-38 -169,152 -223,146 -19,-26 8,-121 -14,-142 -48,-47 -77,10 -76,63 1,49 -9,279 8,306z"/>
   <path class="fil1" d="M7927 5445c0,-75 206,12 114,152 -22,35 -107,67 -112,21 -3,-25 -2,-141 -2,-173zm-73 -100c-6,7 -2,297 -3,331 -1,98 191,34 234,-10 64,-63 74,-173 24,-248 -45,-67 -219,-108 -255,-73z"/>
   <path class="fil1" d="M6946 5554c-13,24 -232,38 -135,-105 60,-88 184,21 135,105zm-158 160c6,-15 7,-65 13,-76l144 0 15 79c83,30 53,-162 53,-230 1,-97 -53,-146 -150,-146 -93,0 -139,67 -138,155 0,42 -28,283 63,218z"/>
   <path class="fil1" d="M4913 5545c-24,-127 113,-158 145,-86 69,153 -138,119 -145,86zm-4 172c3,-19 3,-61 10,-77l144 -2c6,11 6,60 8,76l4 0c86,54 53,-167 56,-222 13,-195 -287,-212 -285,0 1,48 1,97 0,146 0,65 -16,100 63,79z"/>
   <path class="fil1" d="M655 5713l74 8 5 -5 -4 -145c4,-21 5,-20 29,-22 23,-2 116,-2 127,4 35,17 5,122 21,155 17,9 47,9 64,0 8,-17 9,-341 1,-357 -17,-9 -48,-9 -65,0 -17,32 16,120 -24,136 -21,8 -133,7 -150,-6 -19,-33 4,-103 -11,-130 -17,-9 -49,-10 -66,0 -8,17 -5,325 -1,362z"/>
   <path class="fil1" d="M506 5635c-28,9 -188,7 -201,17l6 63c19,15 260,35 272,-83 19,-180 -161,-102 -216,-149l-4 0c2,-21 1,-42 7,-61l190 -14c61,-101 -253,-107 -275,27 -34,206 318,82 221,200z"/>
   <path class="fil1" d="M7450 5350c-6,19 -5,344 2,358l41 3c15,-41 -10,-169 10,-210 33,-11 45,36 88,98 88,126 53,113 134,110l3 -360 -57 -2 2 221c-61,3 -31,-5 -58,-47 -15,-23 -30,-46 -45,-69 -32,-46 -55,-127 -120,-102z"/>
   <path class="fil1" d="M5227 5708l63 3c0,-29 -2,-146 8,-163l176 -3c7,10 3,138 4,161l65 5 3 -363 -69 -1 -1 146c-15,7 -143,3 -169,3 -30,-35 -10,-90 -13,-128 -1,-18 -72,-70 -69,44 2,80 -9,226 2,296z"/>
   <path class="fil1" d="M8833 5554l25 38c52,30 55,144 140,115 7,-14 9,-340 2,-357l-47 -4c-15,34 28,331 -60,178 -14,-25 -108,-174 -118,-177l-46 1c-3,13 0,348 4,361 71,15 26,-79 38,-208 38,-4 56,19 62,53z"/>
   <path class="fil1" d="M9994 5545c-26,-134 119,-153 145,-86 67,163 -140,111 -145,86zm0 -178l-17 0c13,6 7,-3 7,11 -53,41 -48,80 -48,143 0,40 -5,158 3,189 51,9 47,-1 46,-76 35,-11 149,-8 180,0 2,63 -11,78 29,73 10,-15 11,-259 2,-284 -14,-37 -48,-50 -80,-61 -80,-28 -67,0 -122,5z"/>
   <path class="fil1" d="M1198 5642l-21 -21c-52,-35 -7,-219 -26,-271l-66 -2c-7,22 -5,235 2,258 28,87 62,111 153,111 50,0 65,3 105,-27 25,-19 41,-55 44,-85 4,-37 9,-225 4,-253 -18,-7 -38,-7 -55,0 -22,72 42,253 -52,300 -29,15 -72,22 -88,-10z"/>
   <path class="fil1" d="M2864 5692c52,-66 48,-59 48,-150 0,-31 5,-176 1,-192 -18,-5 -36,-6 -52,1 -25,61 53,310 -93,313 -140,4 -77,-229 -94,-313 -18,-7 -53,-8 -68,0 -5,17 -1,133 -1,162 0,70 -4,110 40,164 12,15 6,10 22,19 25,15 27,20 59,22 70,4 78,5 138,-26z"/>
   <path class="fil1" d="M1928 5696c-5,6 -5,6 0,0 35,5 23,20 67,21 47,1 87,7 114,-11 10,-7 13,-7 24,-13 22,-13 24,-27 35,-46 23,-40 14,-99 14,-147 0,-26 4,-139 2,-153l-53 2c-13,83 46,315 -94,315 -140,0 -76,-232 -92,-316l-68 0c-7,43 -1,148 -1,198 0,103 30,100 52,150z"/>
   <path class="fil1" d="M3611 5717c61,-39 92,-54 94,-137 1,-53 6,-186 0,-231l-53 -2c-20,74 55,309 -88,321 -143,12 -86,-237 -97,-320l-69 -1c-7,47 -3,249 12,282 48,104 91,88 201,88z"/>
   <path class="fil1" d="M1678 5571l0 4c51,36 60,160 137,133 6,-19 -36,-74 -50,-95 -21,-29 -36,-61 -55,-90 -16,-23 -22,-23 -5,-50 17,-25 92,-100 101,-118 -18,-15 -70,-6 -71,-6 -10,5 -128,157 -129,157 -49,3 -22,-125 -27,-160l-60 4c-3,14 1,346 5,360l51 -1c18,-31 -18,-65 25,-116 5,-6 28,-38 31,-41 8,-6 43,-18 47,19z"/>
   <path class="fil1" d="M6227 5403c28,-75 -24,-55 -78,-55 -26,0 -123,-6 -139,5l2 353c16,9 200,10 216,2 8,-14 7,-40 2,-55 -30,-13 -122,11 -147,-12 -11,-19 -8,-67 4,-85 36,-16 82,-1 120,-6 28,-92 -55,-36 -122,-57 -11,-27 -13,-67 7,-87 34,-10 98,1 135,-3z"/>
   <path class="fil1" d="M4295 5352c-4,30 -1,343 5,356l213 3c8,-16 7,-43 1,-59 -28,-10 -116,9 -142,-7 -17,-22 -12,-69 3,-91 31,-13 94,4 117,-6 6,-16 8,-35 0,-48 -26,-11 -94,9 -121,-9 -14,-20 -12,-64 3,-83 28,-14 103,-2 138,-4l7 -53c-22,-8 -205,-7 -224,1z"/>
   <path class="fil1" d="M9146 5709l217 2c8,-14 8,-43 1,-57 -36,-14 -122,14 -147,-15 -8,-22 -7,-60 4,-80 34,-21 90,4 118,-13 8,-12 9,-33 2,-44 -24,-16 -96,9 -121,-12 -14,-18 -15,-80 22,-86 34,-6 87,4 119,-2 6,-16 9,-34 3,-49 -11,-7 -201,-9 -217,-3l-1 359z"/>
   <path class="fil1" d="M6410 5403c23,-10 105,-18 143,32 30,39 15,100 -23,124 -38,24 -126,39 -137,-2 -5,-17 -2,-66 -2,-86 -1,-23 -6,-57 19,-68zm-59 304c93,32 -25,-120 119,-90 68,15 18,106 127,93 -1,-29 -41,-62 -45,-90 -6,-38 35,-30 49,-87 12,-48 26,-66 3,-116 -40,-86 -125,-68 -209,-70 -26,0 -50,-8 -51,18 0,16 3,48 3,68 0,45 -6,250 4,274z"/>
   <path class="fil1" d="M3932 5706c23,11 131,1 163,-2 66,-6 84,-18 90,-87 4,-58 -19,-97 -81,-99 -67,-2 -89,9 -140,-32 -25,-127 156,-70 204,-89 30,-60 -43,-49 -77,-49 -57,0 -75,-2 -127,16 -78,28 -70,147 -4,179 52,26 227,-7 172,90 -43,77 -226,-34 -200,73z"/>
   <path class="fil1" d="M9465 5664c-14,66 26,46 82,46 41,-1 78,-4 118,-12 56,-11 89,-117 12,-169 -41,-28 -196,12 -184,-74 12,-83 163,-45 207,-56 31,-64 -35,-51 -74,-51 -61,-1 -178,0 -184,85 -15,199 231,70 233,172 2,91 -157,45 -210,59z"/>
   <path class="fil1" d="M2368 5709c16,-26 -10,-111 12,-145 28,-12 105,4 121,-8 7,-10 7,-42 -1,-51 -19,-9 -87,5 -122,-8 -11,-25 -13,-71 6,-92 28,-16 103,5 137,-7l4 -46c-20,-10 -195,-8 -222,-3 -6,33 1,252 -1,322 0,21 -6,37 15,41 10,2 43,0 51,-3z"/>
   <path class="fil1" d="M4563 5655l11 76c50,-10 144,25 176,-98 7,-27 9,-232 5,-267 -5,-42 -88,-28 -95,-10 -8,22 6,212 -5,262 -12,57 -59,27 -92,37z"/>
   <path class="fil1" d="M5813 5418c50,-45 145,33 122,-67 -20,-8 -304,-7 -324,2l7 47c30,14 71,-6 103,6 28,11 18,64 18,90 0,47 -6,174 2,214l66 -4c16,-67 -12,-217 6,-288z"/>
   <path class="fil1" d="M9773 5716l83 5c9,-25 4,-178 4,-212 0,-80 30,-171 -50,-169 -69,3 -42,95 -42,164 0,36 -6,192 5,212z"/>
   <path class="fil1" d="M7223 5716l81 0c11,-21 5,-172 5,-207 0,-80 30,-171 -50,-169 -69,2 -41,93 -41,164 0,36 -7,192 5,212z"/>
   <path class="fil4" d="M4678 3322c0,-2 -7,-141 -5,-168 3,-41 13,-53 -34,-51 -11,0 -81,6 -85,8 -18,10 -15,141 -12,168 6,59 93,53 136,43z"/>
   <path class="fil4" d="M5155 3104l64 -17c16,-39 76,-77 24,-143 -39,-51 -96,-47 -157,-44 10,37 46,35 45,107 -1,62 -52,63 -56,92l80 5z"/>
   <path class="fil5" d="M5227 5708c-11,-70 0,-216 -2,-296 -3,-114 68,-62 69,-44 3,38 -17,93 13,128 26,0 154,4 169,-3l1 -146 69 1 -3 363 -65 -5c-1,-23 3,-151 -4,-161l-176 3c-10,17 -8,134 -8,163l-63 -3zm-7 7l80 5c8,-11 8,-132 9,-156l149 -4c17,19 -4,139 13,160 21,0 70,7 84,-6l1 -366c-13,-12 -66,-6 -86,-6 -16,20 4,115 -13,137l-143 -8c-26,-41 13,-113 -19,-127 -66,-30 -83,15 -81,68 1,49 -10,277 6,303z"/>
   <path class="fil5" d="M8833 5554c-6,-34 -24,-57 -62,-53 -12,129 33,223 -38,208 -4,-13 -7,-348 -4,-361l46 -1c10,3 104,152 118,177 88,153 45,-144 60,-178l47 4c7,17 5,343 -2,357 -85,29 -88,-85 -140,-115 5,26 39,65 54,88 28,38 41,57 96,36 14,-21 5,-145 5,-182 0,-209 25,-197 -63,-197l-12 14 2 191c-25,12 -38,-24 -53,-46l-88 -137c-14,-20 -25,-26 -61,-21 -12,1 -15,3 -21,8 -11,20 -5,315 -5,363 26,17 43,19 71,4 0,-52 -7,-147 4,-192 40,0 18,16 46,33z"/>
   <path class="fil5" d="M1928 5696c-22,-50 -52,-47 -52,-150 0,-50 -6,-155 1,-198l68 0c16,84 -48,316 92,316 140,0 81,-232 94,-315l53 -2c2,14 -2,127 -2,153 0,48 9,107 -14,147 -11,19 -13,33 -35,46 -11,6 -14,6 -24,13 -27,18 -67,12 -114,11 -44,-1 -32,-16 -67,-21 24,37 172,72 243,-33 46,-69 29,-228 29,-313 -25,-17 -59,-17 -84,0 0,62 0,125 0,188 1,57 -11,113 -79,113 -67,0 -80,-53 -79,-109 0,-64 0,-128 0,-192 -24,-16 -67,-17 -92,0 0,81 -26,318 62,346z"/>
   <path class="fil5" d="M9465 5664c53,-14 212,32 210,-59 -2,-102 -248,27 -233,-172 6,-85 123,-86 184,-85 39,0 105,-13 74,51 -44,11 -195,-27 -207,56 -12,86 143,46 184,74 77,52 44,158 -12,169 -40,8 -77,11 -118,12 -56,0 -96,20 -82,-46zm-1 -18c-15,23 -28,57 -2,72 11,5 196,17 241,-28 14,-14 27,-46 28,-64 10,-165 -148,-96 -226,-147 0,-113 158,-45 195,-68 23,-14 14,-51 6,-70 -42,0 -84,1 -126,0 -73,0 -139,10 -149,102 -4,40 10,66 36,92 65,66 178,8 194,60 5,16 -4,34 -14,43 -13,13 -34,8 -54,8 -43,0 -86,0 -129,0z"/>
   <path class="fil5" d="M3611 5717c-110,0 -153,16 -201,-88 -15,-33 -19,-235 -12,-282l69 1c11,83 -46,332 97,320 143,-12 68,-247 88,-321l53 2c6,45 1,178 0,231 -2,83 -33,98 -94,137zm0 0c130,23 123,-335 103,-371l-73 1c-34,65 54,305 -84,303 -139,-2 -51,-243 -84,-304l-82 1c-16,30 -6,258 10,292 39,78 177,130 210,78z"/>
   <path class="fil5" d="M3932 5706c-26,-107 157,4 200,-73 55,-97 -120,-64 -172,-90 -66,-32 -74,-151 4,-179 52,-18 70,-16 127,-16 34,0 107,-11 77,49 -48,19 -229,-38 -204,89 51,41 73,30 140,32 62,2 85,41 81,99 -6,69 -24,81 -90,87 -32,3 -140,13 -163,2zm-9 8c27,19 136,4 172,3 127,-3 137,-169 42,-204 -49,-18 -116,-1 -160,-29 -9,-18 -11,-30 4,-48 30,-36 144,-24 189,-24 18,-26 13,-24 13,-58l-14 -12c-43,-1 -88,0 -132,-1 -32,0 -82,1 -107,31 -17,19 -19,18 -26,42 -16,55 1,115 57,141 43,20 69,16 118,16 68,0 56,58 32,71 -29,17 -172,-10 -190,14 -10,14 -8,44 2,58z"/>
   <path class="fil5" d="M2864 5692c-60,31 -68,30 -138,26 -32,-2 -34,-7 -59,-22 -16,-9 -10,-4 -22,-19 -44,-54 -40,-94 -40,-164 0,-29 -4,-145 1,-162 15,-8 50,-7 68,0 17,84 -46,317 94,313 146,-3 68,-252 93,-313 16,-7 34,-6 52,-1 4,16 -1,161 -1,192 0,91 4,84 -48,150zm0 0c18,4 19,-2 30,-20 26,-42 33,-59 32,-122 0,-26 4,-190 1,-197 -12,-12 -24,-15 -43,-15 -23,0 -26,6 -41,16 0,63 -1,125 0,188 0,57 -14,114 -83,108 -61,-5 -76,-56 -76,-112 0,-64 0,-128 0,-192 -14,-7 -66,-12 -79,-4 -17,11 -9,56 -9,83 0,50 -5,156 7,198 11,44 54,92 99,102 36,7 160,16 162,-33z"/>
   <path class="fil5" d="M1198 5642c16,32 59,25 88,10 94,-47 30,-228 52,-300 17,-7 37,-7 55,0 5,28 0,216 -4,253 -3,30 -19,66 -44,85 -40,30 -55,27 -105,27 -91,0 -125,-24 -153,-111 -7,-23 -9,-236 -2,-258l66 2c19,52 -26,236 26,271 -1,-23 -11,-32 -13,-58l1 -213c-24,-16 -69,-16 -92,0 0,71 -7,204 5,265 5,22 30,68 54,84 41,28 58,31 108,31 211,0 167,-230 167,-380 -25,-17 -59,-17 -84,0 0,71 1,142 0,213 -1,104 -80,87 -125,79z"/>
   <path class="fil5" d="M1678 5571c-4,-37 -39,-25 -47,-19 -3,3 -26,35 -31,41 -43,51 -7,85 -25,116l-51 1c-4,-14 -8,-346 -5,-360l60 -4c5,35 -22,163 27,160 1,0 119,-152 129,-157 1,0 53,-9 71,6 -9,18 -84,93 -101,118 -17,27 -11,27 5,50 19,29 34,61 55,90 14,21 56,76 50,95 -77,27 -86,-97 -137,-133 3,16 68,133 88,142 15,8 54,9 65,-1 11,-11 -32,-64 -47,-92 -78,-143 -102,-108 -32,-192 15,-18 65,-72 67,-85 -18,-15 -64,-6 -91,-6 -15,23 -45,58 -64,79 -48,54 -44,68 -74,68 -10,-42 15,-102 -7,-144 -15,-8 -58,-9 -71,3 -14,16 -5,151 -5,182 0,53 -7,142 4,188l67 5c42,-65 -32,-57 51,-150 22,-25 26,-10 49,-1z"/>
   <path class="fil5" d="M7450 5350c65,-25 88,56 120,102 15,23 30,46 45,69 27,42 -3,50 58,47l-2 -221 57 2 -3 360c-81,3 -46,16 -134,-110 -43,-62 -55,-109 -88,-98 -20,41 5,169 -10,210l-41 -3c-7,-14 -8,-339 -2,-358zm-5 366c11,10 36,5 52,5 22,-43 -7,-183 14,-207 23,-2 36,38 47,55 15,21 29,44 44,64 69,94 37,88 125,88 21,-31 8,-46 8,-83l0 -205c0,-29 10,-73 -4,-91 -15,-8 -54,-9 -65,1 -13,13 -6,120 -6,157 1,25 6,33 -12,46 -13,-4 -73,-100 -82,-118 -12,-22 -29,-40 -40,-61 -6,-11 -8,-21 -24,-26 -11,-5 -37,-7 -50,-3 -23,7 -13,51 -13,79 0,53 -8,284 6,299z"/>
   <path class="fil5" d="M9146 5709l1 -359c16,-6 206,-4 217,3 6,15 3,33 -3,49 -32,6 -85,-4 -119,2 -37,6 -36,68 -22,86 25,21 97,-4 121,12 7,11 6,32 -2,44 -28,17 -84,-8 -118,13 -11,20 -12,58 -4,80 25,29 111,1 147,15 7,14 7,43 -1,57l-217 -2zm0 0c-4,25 1,12 59,12 200,1 175,16 175,-71 -48,-24 -120,8 -153,-17l-1 -58c32,-21 81,-12 121,-12 12,-25 8,-38 8,-67 -36,-18 -107,1 -124,-14 -10,-12 -5,-39 -5,-57 33,-17 98,-8 137,-8 22,-33 17,-19 17,-63l-13 -12c-37,-1 -210,-11 -228,5 -13,14 -4,269 -5,324 -1,26 -7,38 12,38z"/>
   <path class="fil5" d="M4295 5352c19,-8 202,-9 224,-1l-7 53c-35,2 -110,-10 -138,4 -15,19 -17,63 -3,83 27,18 95,-2 121,9 8,13 6,32 0,48 -23,10 -86,-7 -117,6 -15,22 -20,69 -3,91 26,16 114,-3 142,7 6,16 7,43 -1,59l-213 -3c-6,-13 -9,-326 -5,-356zm-5 362c19,13 220,12 229,2 12,-13 6,-47 6,-66 -37,-24 -101,-12 -146,-12 -7,-16 -9,-58 1,-70 14,-12 92,-5 116,-5 5,-18 6,-4 8,-25 1,-10 0,-27 0,-38l-13 -12c-26,0 -93,10 -111,-6 -9,-11 -9,-49 0,-60 15,-13 110,-5 137,-5 8,-16 18,-64 2,-73 -8,-5 -153,-2 -173,-3 -33,0 -62,-10 -63,25 -3,44 -6,329 7,348z"/>
   <path class="fil5" d="M6227 5403c-37,4 -101,-7 -135,3 -20,20 -18,60 -7,87 67,21 150,-35 122,57 -38,5 -84,-10 -120,6 -12,18 -15,66 -4,85 25,23 117,-1 147,12 5,15 6,41 -2,55 -16,8 -200,7 -216,-2l-2 -353c16,-11 113,-5 139,-5 54,0 106,-20 78,55zm-228 306l13 12c57,0 176,8 225,-4l5 -66c-39,-25 -105,-13 -151,-13 -8,-30 -9,-50 8,-75l113 0c22,-93 3,-75 -117,-75 -17,-34 -8,-41 0,-71l133 0c17,-25 16,-45 9,-76 -269,0 -238,-18 -238,59 0,103 0,206 0,309z"/>
   <path class="fil5" d="M6597 5710c-109,13 -59,-78 -127,-93 -144,-30 -26,122 -119,90 -10,-24 -4,-229 -4,-274 0,-20 -3,-52 -3,-68 1,-26 25,-18 51,-18 84,2 169,-16 209,70 23,50 9,68 -3,116 -14,57 -55,49 -49,87 4,28 44,61 45,90zm-256 -369c-20,31 -8,-10 -8,80 0,66 -6,255 4,296 113,28 49,-61 76,-82 18,-8 44,-8 63,-2 31,10 38,76 64,85 16,6 55,8 67,-2 23,-25 -76,-86 -35,-122 95,-84 56,-233 -40,-251 -59,-12 -138,-2 -191,-2z"/>
   <path class="fil6" d="M655 5713c-4,-37 -7,-345 1,-362 17,-10 49,-9 66,0 15,27 -8,97 11,130 17,13 129,14 150,6 40,-16 7,-104 24,-136 17,-9 48,-9 65,0 8,16 7,340 -1,357 -17,9 -47,9 -64,0 -16,-33 14,-138 -21,-155 -11,-6 -104,-6 -127,-4 -24,2 -25,1 -29,22 34,-13 -5,-12 76,-12 89,0 89,-14 87,87 0,49 -16,32 13,75l75 -2c11,-49 4,-132 4,-185 0,-33 9,-170 -6,-187 -11,-10 -73,-10 -85,0 -14,32 16,89 -13,132l-134 0 -12 -13c0,-40 5,-87 -5,-125 -32,0 -61,-9 -87,9l0 346c4,20 3,12 12,17z"/>
   <path class="fil5" d="M2368 5709c-8,3 -41,5 -51,3 -21,-4 -15,-20 -15,-41 2,-70 -5,-289 1,-322 27,-5 202,-7 222,3l-4 46c-34,12 -109,-9 -137,7 -19,21 -17,67 -6,92 35,13 103,-1 122,8 8,9 8,41 1,51 -16,12 -93,-4 -121,8 -22,34 4,119 -12,145zm-81 -359c0,58 -9,332 7,365 19,9 65,14 80,1 15,-17 -5,-107 14,-145l117 0c18,-28 12,-32 12,-67l-13 -11 -116 -1c-13,-26 -12,-50 0,-75l133 0c20,-30 11,-44 9,-76 -39,-3 -83,0 -126,0 -39,0 -89,-10 -117,9z"/>
   <path class="fil5" d="M9994 5367c55,-5 42,-33 122,-5 32,11 66,24 80,61 9,25 8,269 -2,284 -40,5 -27,-10 -29,-73 -31,-8 -145,-11 -180,0 1,75 5,85 -46,76 -8,-31 -3,-149 -3,-189 0,-63 -5,-102 48,-143 0,-14 6,-5 -7,-11 -56,73 -50,54 -50,154 0,55 -7,148 4,196l50 5c19,-22 12,-22 15,-80l144 -5c13,26 8,43 8,72 91,59 67,-77 67,-138 0,-46 6,-111 -9,-149 -24,-61 -172,-121 -212,-55z"/>
   <path class="fil5" d="M5813 5418c-18,71 10,221 -6,288l-66 4c-8,-40 -2,-167 -2,-214 0,-26 10,-79 -18,-90 -32,-12 -73,8 -103,-6l-7 -47c20,-9 304,-10 324,-2 23,100 -72,22 -122,67zm-211 -14l13 12c26,1 89,-9 107,6 25,28 -16,264 17,296 23,11 63,5 84,-9l0 -280c31,-20 75,-12 113,-12l12 -14c1,-64 12,-62 -54,-62l-233 0c-72,0 -59,-9 -59,63z"/>
   <path class="fil5" d="M6404 5449c-3,-28 14,-37 37,-37 48,0 86,-9 112,43 12,25 6,42 -6,63 -26,48 -52,49 -106,49 -55,0 -26,-27 -33,-100 -1,-11 -4,-14 -4,-18zm6 -46c-25,11 -20,45 -19,68 0,20 -3,69 2,86 11,41 99,26 137,2 38,-24 53,-85 23,-124 -38,-50 -120,-42 -143,-32z"/>
  </g>
 </g>
</svg>
